{"title":"The Martian(2015)MPEG-4[DaScubaDude]","uid":13684680,"size":1418774622,"categoryP":"video","categoryS":"movies","magnet":"?xt=urn:btih:adafc0a78cb8f4980e0843abbd2d7e6ffbb7823b&amp;dn=The+Martian%282015%29MPEG-4%5BDaScubaDude%5D&amp;tr=udp%3A%2F%2Ftracker.leechers-paradise.org%3A6969&amp;tr=udp%3A%2F%2Fzer0day.ch%3A1337&amp;tr=udp%3A%2F%2Fopen.demonii.com%3A1337&amp;tr=udp%3A%2F%2Ftracker.coppersurfer.tk%3A6969&amp;tr=udp%3A%2F%2Fexodus.desync.com%3A6969","seeders":1,"leechers":2,"uploader":"dascuba","files":1,"time":1456536358,"description":"The Martian (2015)\r\nPG-13 | 2h 24min | Adventure, Drama, Sci-Fi | 2 October 2015 (USA)\r\nDuring a manned mission to Mars, Astronaut Mark Watney is presumed dead after a fierce storm and left behind by his crew. But Watney has survived and finds himself stranded and alone on the hostile planet. With only meager supplies, he must draw upon his ingenuity, wit and spirit to subsist and find a way to signal to Earth that he is alive.\r\nDirector: Ridley Scott\r\nWriters: Drew Goddard (screenplay), Andy Weir (book)\r\nStars: Matt Damon, Jessica Chastain, Kristen Wiig \r\n\r\nGeneral\r\nComplete name                            : The MartianTHE_MARTIAN_Title1.mp4\r\nFormat                                   : MPEG-4\r\nFormat profile                           : Base Media\r\nCodec ID                                 : isom\r\nFile size                                : 1.32 GiB\r\nDuration                                 : 2h 21mn\r\nOverall bit rate                         : 1 337 Kbps\r\nMovie name                               : THE_MARTIAN\r\nGenre                                    : Action\r\nWriting application                      : Lavf54.6.100\r\n\r\nVideo\r\nID                                       : 1\r\nFormat                                   : AVC\r\nFormat/Info                              : Advanced Video Codec\r\nFormat profile                           :   \r\nFormat settings, CABAC                   : No\r\nFormat settings, ReFrames                : 6 frames\r\nCodec ID                                 : avc1\r\nCodec ID/Info                            : Advanced Video Coding\r\nDuration                                 : 2h 21mn\r\nBit rate                                 : 1 203 Kbps\r\nWidth                                    : 720 pixels\r\nHeight                                   : 404 pixels\r\nDisplay aspect ratio                     : 16:9\r\nFrame rate mode                          : Constant\r\nFrame rate                               : 29.970 fps\r\nColor space                              : YUV\r\nChroma subsampling                       : 4:2:0\r\nBit depth                                : 8 bits\r\nScan type                                : Progressive\r\nBits/(Pixel*Frame)                       : 0.138\r\nStream size                              : 1.19 GiB (90%)\r\n\r\nAudio\r\nID                                       : 2\r\nFormat                                   : AAC\r\nFormat/Info                              : Advanced Audio Codec\r\nFormat profile                           : LC\r\nCodec ID                                 : 40\r\nDuration                                 : 2h 21mn\r\nBit rate mode                            : Constant\r\nBit rate                                 : 128 Kbps\r\nChannel(s)                               : 2 channels\r\nChannel positions                        : Front: L R\r\nSampling rate                            : 44.1 KHz\r\nCompression mode                         : Lossy\r\nStream size                              : 129 MiB (10%)","torrent":{"xt":"urn:btih:adafc0a78cb8f4980e0843abbd2d7e6ffbb7823b","amp;dn":"The+Martian%282015%29MPEG-4%5BDaScubaDude%5D","amp;tr":["udp%3A%2F%2Ftracker.leechers-paradise.org%3A6969","udp%3A%2F%2Fzer0day.ch%3A1337","udp%3A%2F%2Fopen.demonii.com%3A1337","udp%3A%2F%2Ftracker.coppersurfer.tk%3A6969","udp%3A%2F%2Fexodus.desync.com%3A6969"],"infoHash":"adafc0a78cb8f4980e0843abbd2d7e6ffbb7823b","infoHashBuffer":{"type":"Buffer","data":[173,175,192,167,140,184,244,152,14,8,67,171,189,45,126,111,251,183,130,59]},"announce":[],"urlList":[]}}